mtllib Bottle_Cap.mtl
usemtl phong1SG
# Blender v2.78 (sub 0) OBJ File: ''
# www.blender.org
o Cylinder_Cylinder.001
v 0.000000 -0.001717 -0.018055
v -0.000000 0.003698 -0.015632
v 0.006175 -0.001717 -0.016966
v 0.005346 0.003698 -0.014689
v 0.011606 -0.001717 -0.013831
v 0.010048 0.003698 -0.011975
v 0.015636 -0.001717 -0.009028
v 0.013537 0.003698 -0.007816
v 0.017781 -0.001717 -0.003135
v 0.015394 0.003698 -0.002714
v 0.017781 -0.001717 0.003135
v 0.015394 0.003698 0.002714
v 0.015636 -0.001717 0.009028
v 0.013537 0.003698 0.007816
v 0.011606 -0.001717 0.013831
v 0.010048 0.003698 0.011975
v 0.006175 -0.001717 0.016966
v 0.005346 0.003698 0.014689
v 0.000000 -0.001717 0.018055
v 0.000000 0.003698 0.015632
v -0.006175 -0.001717 0.016966
v -0.005346 0.003698 0.014689
v -0.011606 -0.001717 0.013831
v -0.010048 0.003698 0.011975
v -0.015636 -0.001717 0.009028
v -0.013537 0.003698 0.007816
v -0.017781 -0.001717 0.003135
v -0.015394 0.003698 0.002714
v -0.017781 -0.001717 -0.003135
v -0.015394 0.003698 -0.002714
v -0.015636 -0.001717 -0.009028
v -0.013537 0.003698 -0.007816
v -0.011606 -0.001717 -0.013831
v -0.010048 0.003698 -0.011975
v -0.006175 -0.001717 -0.016966
v -0.005346 0.003698 -0.014689
v 0.000449 -0.001717 -0.016194
v 0.000419 0.002360 -0.015121
v 0.004778 0.002360 -0.014353
v 0.005117 -0.001717 -0.015371
v 0.005961 -0.001717 -0.015064
v 0.005566 0.002360 -0.014066
v 0.009399 0.002360 -0.011853
v 0.010066 -0.001717 -0.012694
v 0.010754 -0.001717 -0.012117
v 0.010041 0.002360 -0.011314
v 0.012886 0.002360 -0.007924
v 0.013800 -0.001717 -0.008486
v 0.014249 -0.001717 -0.007708
v 0.013305 0.002360 -0.007197
v 0.014819 0.002360 -0.003039
v 0.015870 -0.001717 -0.003254
v 0.016026 -0.001717 -0.002370
v 0.014964 0.002360 -0.002213
v 0.014964 0.002360 0.002213
v 0.016026 -0.001717 0.002370
v 0.015870 -0.001717 0.003254
v 0.014819 0.002360 0.003039
v 0.013305 0.002360 0.007197
v 0.014249 -0.001717 0.007708
v 0.013800 -0.001717 0.008486
v 0.012886 0.002360 0.007924
v 0.010041 0.002360 0.011314
v 0.010754 -0.001717 0.012117
v 0.010066 -0.001717 0.012694
v 0.009399 0.002360 0.011853
v 0.005566 0.002360 0.014066
v 0.005961 -0.001717 0.015064
v 0.005117 -0.001717 0.015371
v 0.004778 0.002360 0.014353
v 0.000419 0.002360 0.015121
v 0.000449 -0.001717 0.016194
v -0.000449 -0.001717 0.016194
v -0.000419 0.002360 0.015121
v -0.004778 0.002360 0.014353
v -0.005117 -0.001717 0.015371
v -0.005961 -0.001717 0.015064
v -0.005566 0.002360 0.014066
v -0.009398 0.002360 0.011853
v -0.010066 -0.001717 0.012694
v -0.010754 -0.001717 0.012117
v -0.010041 0.002360 0.011314
v -0.012886 0.002360 0.007924
v -0.013800 -0.001717 0.008486
v -0.014249 -0.001717 0.007708
v -0.013305 0.002360 0.007197
v -0.014819 0.002360 0.003039
v -0.015870 -0.001717 0.003254
v -0.016026 -0.001717 0.002370
v -0.014964 0.002360 0.002213
v -0.014964 0.002360 -0.002213
v -0.016026 -0.001717 -0.002370
v -0.015870 -0.001717 -0.003254
v -0.014819 0.002360 -0.003039
v -0.013305 0.002360 -0.007197
v -0.014249 -0.001717 -0.007708
v -0.013800 -0.001717 -0.008486
v -0.012886 0.002360 -0.007924
v -0.010041 0.002360 -0.011314
v -0.010754 -0.001717 -0.012117
v -0.010066 -0.001717 -0.012694
v -0.009399 0.002360 -0.011853
v -0.005566 0.002360 -0.014066
v -0.005961 -0.001717 -0.015064
v -0.005117 -0.001717 -0.015371
v -0.004778 0.002360 -0.014353
v -0.000419 0.002360 -0.015121
v -0.000449 -0.001717 -0.016194
v -0.000000 0.005459 -0.014761
v 0.005048 0.005459 -0.013871
v 0.009488 0.005459 -0.011307
v 0.012783 0.005459 -0.007380
v 0.014537 0.005459 -0.002563
v 0.014537 0.005459 0.002563
v 0.012783 0.005459 0.007380
v 0.009488 0.005459 0.011307
v 0.005048 0.005459 0.013871
v 0.000000 0.005459 0.014761
v -0.005048 0.005459 0.013871
v -0.009488 0.005459 0.011307
v -0.012783 0.005459 0.007380
v -0.014537 0.005459 0.002563
v -0.014537 0.005459 -0.002563
v -0.012783 0.005459 -0.007380
v -0.009488 0.005459 -0.011307
v -0.005049 0.005459 -0.013871
vt 0.8795 0.3180
vt 0.9616 0.1967
vt 0.9866 0.2246
vt 0.9970 0.2353
vt 0.8483 0.3545
vt 0.8570 0.2939
vt 0.8170 0.3216
vt 0.9520 0.1852
vt 0.4846 0.1885
vt 0.4475 0.2552
vt 0.4399 0.1920
vt 0.8447 0.2808
vt 0.9129 0.1512
vt 0.9405 0.1758
vt 0.7823 0.2910
vt 0.9022 0.1409
vt 0.8194 0.2590
vt 0.6627 0.2208
vt 0.6734 0.2985
vt 0.6376 0.2815
vt 0.8057 0.2473
vt 0.8599 0.1115
vt 0.8898 0.1328
vt 0.7783 0.2281
vt 0.7447 0.2637
vt 0.8482 0.1023
vt 0.2043 0.3006
vt 0.2178 0.3727
vt 0.1744 0.3306
vt 0.7635 0.2177
vt 0.8033 0.0776
vt 0.8351 0.0956
vt 0.7343 0.2015
vt 0.7047 0.2401
vt 0.7908 0.0697
vt 0.3534 0.2123
vt 0.4099 0.2617
vt 0.3735 0.2720
vt 0.7186 0.1927
vt 0.7438 0.0498
vt 0.7771 0.0644
vt 0.6881 0.1795
vt 0.7307 0.0433
vt 0.6193 0.2058
vt 0.5627 0.2591
vt 0.5748 0.1954
vt 0.6717 0.1724
vt 0.6821 0.0284
vt 0.7166 0.0395
vt 0.6402 0.1625
vt 0.6684 0.0234
vt 0.7401 0.3434
vt 0.6541 0.0210
vt 0.5910 0.1504
vt 0.6189 0.0136
vt 0.6232 0.1570
vt 0.6049 0.0100
vt 0.3125 0.2288
vt 0.3051 0.3032
vt 0.2738 0.2493
vt 0.5737 0.1467
vt 0.5549 0.0053
vt 0.5905 0.0091
vt 0.5412 0.1435
vt 0.5298 0.1896
vt 0.5406 0.0032
vt 0.4857 0.2526
vt 0.5237 0.1416
vt 0.4907 0.0037
vt 0.5263 0.0037
vt 0.4764 0.0030
vt 0.4913 0.1417
vt 0.7076 0.3192
vt 0.4738 0.1416
vt 0.4271 0.0086
vt 0.4623 0.0050
vt 0.4417 0.1450
vt 0.4128 0.0093
vt 0.2376 0.2734
vt 0.2447 0.3469
vt 0.3991 0.0128
vt 0.3930 0.1534
vt 0.3647 0.0199
vt 0.4244 0.1467
vt 0.3960 0.2000
vt 0.3507 0.0221
vt 0.3761 0.1568
vt 0.3041 0.0375
vt 0.3374 0.0269
vt 0.3457 0.1665
vt 0.2905 0.0411
vt 0.6006 0.2684
vt 0.3293 0.1716
vt 0.2460 0.0610
vt 0.2778 0.0472
vt 0.3003 0.1844
vt 0.2329 0.0660
vt 0.1931 0.4004
vt 0.1480 0.3626
vt 0.2846 0.1911
vt 0.1909 0.0902
vt 0.2210 0.0733
vt 0.2572 0.2066
vt 0.1785 0.0964
vt 0.7708 0.3706
vt 0.2423 0.2148
vt 0.1394 0.1247
vt 0.1675 0.1049
vt 0.1278 0.1322
vt 0.2168 0.2330
vt 0.3384 0.2859
vt 0.2030 0.2426
vt 0.0921 0.1641
vt 0.1178 0.1416
vt 0.1797 0.2630
vt 0.0813 0.1727
vt 0.5242 0.2538
vt 0.0724 0.1831
vt 0.1463 0.2964
vt 0.0493 0.2081
vt 0.1670 0.2739
vt 0.0396 0.2177
vt 0.0319 0.2290
vt 0.1173 0.3325
vt 0.0115 0.2564
vt 0.1350 0.3084
vt 0.0030 0.2670
vt 0.2738 0.3236
vt 0.8005 0.4004
vt 0.3972 0.4798
vt 0.5873 0.3701
vt 0.5873 0.5133
vt 0.5212 0.5514
vt 0.4825 0.5514
vt 0.4462 0.5382
vt 0.4165 0.5133
vt 0.3904 0.4417
vt 0.3972 0.4036
vt 0.4165 0.3701
vt 0.4462 0.3452
vt 0.4825 0.3319
vt 0.5212 0.3319
vt 0.5576 0.3452
vt 0.6066 0.4036
vt 0.6133 0.4417
vt 0.6066 0.4798
vt 0.5576 0.5382
vn 0.5714 0.0343 -0.8200
vn -0.4460 0.1819 -0.8764
vn 0.7188 0.1819 -0.6710
vn 0.9629 0.0853 -0.2562
vn 0.3944 0.1341 -0.9091
vn -0.2564 0.0343 -0.9659
vn 0.3384 0.1459 -0.9296
vn 0.3245 0.3160 -0.8915
vn 0.0000 0.1459 0.9893
vn -0.3066 0.4433 0.8423
vn -0.3384 0.1459 0.9296
vn 0.8173 0.0343 -0.5751
vn -0.1194 0.1819 -0.9761
vn 0.9050 0.1819 -0.3847
vn 0.6359 0.1459 -0.7578
vn 0.6099 0.3160 -0.7268
vn 0.0894 0.0343 -0.9954
vn 0.9742 0.1459 0.1718
vn 0.8827 0.4433 -0.1557
vn 0.8827 0.4433 0.1557
vn 0.9648 0.0343 -0.2608
vn 0.2217 0.1819 -0.9580
vn 0.9820 0.1819 -0.0519
vn 0.4244 0.0343 -0.9048
vn 0.8567 0.1459 -0.4946
vn 0.8217 0.3160 -0.4744
vn -0.6359 0.1459 -0.7578
vn -0.3066 0.4433 -0.8423
vn -0.3384 0.1459 -0.9296
vn 0.9958 0.0343 0.0848
vn 0.5360 0.1819 -0.8244
vn 0.9405 0.1819 0.2870
vn 0.7083 0.0343 -0.7051
vn 0.9742 0.1459 -0.1718
vn 0.9344 0.3160 -0.1648
vn -0.8567 0.1459 0.4946
vn -0.5762 0.4433 0.6867
vn -0.7763 0.4433 0.4482
vn 0.9067 0.0343 0.4203
vn 0.7856 0.1819 -0.5914
vn 0.7856 0.1819 0.5914
vn 0.9067 0.0343 -0.4203
vn 0.9344 0.3160 0.1648
vn 0.8567 0.1459 0.4946
vn 0.5762 0.4433 0.6867
vn 0.6359 0.1459 0.7578
vn 0.7083 0.0343 0.7051
vn 0.9405 0.1819 -0.2870
vn 0.5360 0.1819 0.8244
vn 0.9958 0.0343 -0.0848
vn 0.8217 0.3160 0.4744
vn 0.5762 0.4433 -0.6867
vn 0.2217 0.1819 0.9580
vn 0.9648 0.0343 0.2608
vn 0.9820 0.1819 0.0519
vn 0.4244 0.0343 0.9048
vn 0.6099 0.3160 0.7268
vn -0.9742 0.1459 0.1718
vn -0.8827 0.4433 -0.1557
vn -0.9742 0.1459 -0.1718
vn 0.0894 0.0343 0.9954
vn 0.9050 0.1819 0.3847
vn -0.1194 0.1819 0.9761
vn 0.8173 0.0343 0.5751
vn 0.3384 0.1459 0.9296
vn 0.3245 0.3160 0.8915
vn -0.0000 0.4433 0.8964
vn -0.2564 0.0343 0.9659
vn 0.7188 0.1819 0.6710
vn -0.4460 0.1819 0.8764
vn 0.0000 0.3160 0.9488
vn 0.5714 0.0343 0.8200
vn 0.7763 0.4433 -0.4482
vn -0.5714 0.0343 0.8200
vn 0.4460 0.1819 0.8764
vn -0.7188 0.1819 0.6710
vn 0.2564 0.0343 0.9659
vn -0.3245 0.3160 0.8915
vn -0.8567 0.1459 -0.4946
vn -0.5762 0.4433 -0.6867
vn -0.9050 0.1819 0.3847
vn -0.0894 0.0343 0.9954
vn 0.1194 0.1819 0.9761
vn -0.8173 0.0343 0.5751
vn -0.6359 0.1459 0.7578
vn -0.6099 0.3160 0.7268
vn -0.9648 0.0343 0.2608
vn -0.2217 0.1819 0.9580
vn -0.9820 0.1819 0.0519
vn -0.4244 0.0343 0.9048
vn -0.8217 0.3160 0.4744
vn 0.7763 0.4433 0.4482
vn -0.9958 0.0343 -0.0848
vn -0.5360 0.1819 0.8244
vn -0.9405 0.1819 -0.2870
vn -0.7083 0.0343 0.7051
vn -0.9344 0.3160 0.1648
vn -0.1561 0.4379 -0.8854
vn -0.3944 0.1341 -0.9091
vn -0.9067 0.0343 -0.4203
vn -0.7856 0.1819 0.5914
vn -0.7856 0.1819 -0.5914
vn -0.9067 0.0343 0.4203
vn -0.9344 0.3160 -0.1648
vn 0.3066 0.4433 -0.8423
vn -0.7083 0.0343 -0.7051
vn -0.9405 0.1819 0.2870
vn -0.5360 0.1819 -0.8244
vn -0.8217 0.3160 -0.4744
vn -0.9958 0.0343 0.0848
vn -0.8827 0.4433 0.1557
vn -0.4244 0.0343 -0.9048
vn -0.9820 0.1819 -0.0519
vn -0.2217 0.1819 -0.9580
vn -0.9648 0.0343 -0.2608
vn -0.6099 0.3160 -0.7268
vn 0.3066 0.4433 0.8423
vn 0.1194 0.1819 -0.9761
vn -0.8173 0.0343 -0.5751
vn -0.9050 0.1819 -0.3847
vn -0.0894 0.0343 -0.9954
vn -0.3245 0.3160 -0.8915
vn 0.4460 0.1819 -0.8764
vn -0.5714 0.0343 -0.8200
vn -0.7188 0.1819 -0.6710
vn 0.2564 0.0343 -0.9659
vn -0.9629 0.0853 -0.2562
vn -0.7763 0.4433 -0.4482
vn 0.1561 0.4379 -0.8854
vn 0.0000 1.0000 0.0000
s 1
f 38/1/1 40/2/2 37/3/3
f 38/1/1 1/4/4 2/5/5
f 39/6/6 2/5/5 4/7/7
f 3/8/8 39/6/6 4/7/7
f 20/9/9 119/10/10 22/11/11
f 42/12/12 44/13/13 41/14/14
f 42/12/12 3/8/8 4/7/7
f 6/15/15 42/12/12 4/7/7
f 5/16/16 43/17/17 6/15/15
f 12/18/18 113/19/19 114/20/20
f 46/21/21 48/22/22 45/23/23
f 46/21/21 5/16/16 6/15/15
f 47/24/24 6/15/15 8/25/25
f 7/26/26 47/24/24 8/25/25
f 34/27/27 126/28/28 36/29/29
f 50/30/30 52/31/31 49/32/32
f 50/30/30 7/26/26 8/25/25
f 51/33/33 8/25/25 10/34/34
f 9/35/35 51/33/33 10/34/34
f 26/36/36 120/37/37 121/38/38
f 54/39/39 56/40/40 53/41/41
f 54/39/39 9/35/35 10/34/34
f 55/42/42 10/34/34 12/18/18
f 11/43/43 55/42/42 12/18/18
f 14/44/44 116/45/45 16/46/46
f 58/47/47 60/48/48 57/49/49
f 58/47/47 11/43/43 12/18/18
f 59/50/50 12/18/18 14/44/44
f 13/51/51 59/50/50 14/44/44
f 4/7/7 111/52/52 6/15/15
f 61/53/53 63/54/54 64/55/55
f 62/56/56 13/51/51 14/44/44
f 63/54/54 14/44/44 16/46/46
f 15/57/57 63/54/54 16/46/46
f 28/58/58 123/59/59 30/60/60
f 66/61/61 68/62/62 65/63/63
f 66/61/61 15/57/57 16/46/46
f 67/64/64 16/46/46 18/65/65
f 17/66/66 67/64/64 18/65/65
f 18/65/65 118/67/67 20/9/9
f 70/68/68 72/69/69 69/70/70
f 70/68/68 17/66/66 18/65/65
f 20/9/9 70/68/68 18/65/65
f 19/71/71 71/72/72 20/9/9
f 10/34/34 112/73/73 113/19/19
f 74/74/74 76/75/75 73/76/76
f 74/74/74 19/71/71 20/9/9
f 75/77/77 20/9/9 22/11/11
f 21/78/78 75/77/77 22/11/11
f 32/79/79 125/80/80 34/27/27
f 77/81/81 79/82/82 80/83/83
f 78/84/84 21/78/78 22/11/11
f 79/82/82 22/11/11 24/85/85
f 23/86/86 79/82/82 24/85/85
f 22/11/11 120/37/37 24/85/85
f 82/87/87 84/88/88 81/89/89
f 82/87/87 23/86/86 24/85/85
f 83/90/90 24/85/85 26/36/36
f 25/91/91 83/90/90 26/36/36
f 12/18/18 115/92/92 14/44/44
f 86/93/93 88/94/94 85/95/95
f 86/93/93 25/91/91 26/36/36
f 87/96/96 26/36/36 28/58/58
f 27/97/97 87/96/96 28/58/58
f 36/29/29 109/98/98 2/99/99
f 90/100/100 92/101/101 89/102/102
f 90/100/100 27/97/97 28/58/58
f 91/103/103 28/58/58 30/60/60
f 29/104/104 91/103/103 30/60/60
f 2/5/5 110/105/105 4/7/7
f 94/106/106 96/107/107 93/108/108
f 94/106/106 29/104/104 30/60/60
f 32/79/79 94/106/106 30/60/60
f 31/109/109 95/110/110 32/79/79
f 26/36/36 122/111/111 28/58/58
f 98/112/112 100/113/113 97/114/114
f 98/112/112 31/109/109 32/79/79
f 99/115/115 32/79/79 34/27/27
f 33/116/116 99/115/115 34/27/27
f 18/65/65 116/45/45 117/117/117
f 101/118/118 103/119/119 104/120/120
f 102/121/121 33/116/116 34/27/27
f 103/119/119 34/27/27 36/29/29
f 35/122/122 103/119/119 36/29/29
f 6/15/15 112/73/73 8/25/25
f 105/123/123 107/124/124 108/125/125
f 106/126/126 35/122/122 36/29/29
f 2/99/99 106/126/126 36/29/29
f 1/127/127 107/124/124 2/99/99
f 30/60/60 124/128/128 32/79/79
f 38/1/1 39/6/6 40/2/2
f 38/1/1 37/3/3 1/4/4
f 39/6/6 38/1/1 2/5/5
f 3/8/8 40/2/2 39/6/6
f 20/9/9 118/67/67 119/10/10
f 42/12/12 43/17/17 44/13/13
f 42/12/12 41/14/14 3/8/8
f 6/15/15 43/17/17 42/12/12
f 5/16/16 44/13/13 43/17/17
f 12/18/18 10/34/34 113/19/19
f 46/21/21 47/24/24 48/22/22
f 46/21/21 45/23/23 5/16/16
f 47/24/24 46/21/21 6/15/15
f 7/26/26 48/22/22 47/24/24
f 34/27/27 125/80/80 126/28/28
f 50/30/30 51/33/33 52/31/31
f 50/30/30 49/32/32 7/26/26
f 51/33/33 50/30/30 8/25/25
f 9/35/35 52/31/31 51/33/33
f 26/36/36 24/85/85 120/37/37
f 54/39/39 55/42/42 56/40/40
f 54/39/39 53/41/41 9/35/35
f 55/42/42 54/39/39 10/34/34
f 11/43/43 56/40/40 55/42/42
f 14/44/44 115/92/92 116/45/45
f 58/47/47 59/50/50 60/48/48
f 58/47/47 57/49/49 11/43/43
f 59/50/50 58/47/47 12/18/18
f 13/51/51 60/48/48 59/50/50
f 4/7/7 110/105/105 111/52/52
f 61/53/53 62/56/56 63/54/54
f 62/56/56 61/53/53 13/51/51
f 63/54/54 62/56/56 14/44/44
f 15/57/57 64/55/55 63/54/54
f 28/58/58 122/111/111 123/59/59
f 66/61/61 67/64/64 68/62/62
f 66/61/61 65/63/63 15/57/57
f 67/64/64 66/61/61 16/46/46
f 17/66/66 68/62/62 67/64/64
f 18/65/65 117/117/117 118/67/67
f 70/68/68 71/72/72 72/69/69
f 70/68/68 69/70/70 17/66/66
f 20/9/9 71/72/72 70/68/68
f 19/71/71 72/69/69 71/72/72
f 10/34/34 8/25/25 112/73/73
f 74/74/74 75/77/77 76/75/75
f 74/74/74 73/76/76 19/71/71
f 75/77/77 74/74/74 20/9/9
f 21/78/78 76/75/75 75/77/77
f 32/79/79 124/128/128 125/80/80
f 77/81/81 78/84/84 79/82/82
f 78/84/84 77/81/81 21/78/78
f 79/82/82 78/84/84 22/11/11
f 23/86/86 80/83/83 79/82/82
f 22/11/11 119/10/10 120/37/37
f 82/87/87 83/90/90 84/88/88
f 82/87/87 81/89/89 23/86/86
f 83/90/90 82/87/87 24/85/85
f 25/91/91 84/88/88 83/90/90
f 12/18/18 114/20/20 115/92/92
f 86/93/93 87/96/96 88/94/94
f 86/93/93 85/95/95 25/91/91
f 87/96/96 86/93/93 26/36/36
f 27/97/97 88/94/94 87/96/96
f 36/29/29 126/28/28 109/98/98
f 90/100/100 91/103/103 92/101/101
f 90/100/100 89/102/102 27/97/97
f 91/103/103 90/100/100 28/58/58
f 29/104/104 92/101/101 91/103/103
f 2/5/5 109/129/129 110/105/105
f 94/106/106 95/110/110 96/107/107
f 94/106/106 93/108/108 29/104/104
f 32/79/79 95/110/110 94/106/106
f 31/109/109 96/107/107 95/110/110
f 26/36/36 121/38/38 122/111/111
f 98/112/112 99/115/115 100/113/113
f 98/112/112 97/114/114 31/109/109
f 99/115/115 98/112/112 32/79/79
f 33/116/116 100/113/113 99/115/115
f 18/65/65 16/46/46 116/45/45
f 101/118/118 102/121/121 103/119/119
f 102/121/121 101/118/118 33/116/116
f 103/119/119 102/121/121 34/27/27
f 35/122/122 104/120/120 103/119/119
f 6/15/15 111/52/52 112/73/73
f 105/123/123 106/126/126 107/124/124
f 106/126/126 105/123/123 35/122/122
f 2/99/99 107/124/124 106/126/126
f 1/127/127 108/125/125 107/124/124
f 30/60/60 123/59/59 124/128/128
s 2
f 119/130/130 111/131/130 125/132/130
f 123/133/130 122/134/130 121/135/130
f 121/135/130 120/136/130 119/130/130
f 119/130/130 118/137/130 117/138/130
f 117/138/130 116/139/130 115/140/130
f 115/140/130 114/141/130 111/131/130
f 113/142/130 112/143/130 111/131/130
f 111/131/130 110/144/130 109/145/130
f 109/145/130 126/146/130 111/131/130
f 125/132/130 124/147/130 123/133/130
f 123/133/130 121/135/130 119/130/130
f 119/130/130 117/138/130 115/140/130
f 114/141/130 113/142/130 111/131/130
f 111/131/130 126/146/130 125/132/130
f 125/132/130 123/133/130 119/130/130
f 119/130/130 115/140/130 111/131/130
